<!-- Generated by IcoMoon.io -->
<!-- <svg version="1.1" xmlns="http://www.w3.org/2000/svg" width="32" height="32" viewBox="0 0 32 32">
<title>chat</title>
<path d="M26.688 21.313v-16h-21.375v18.688l2.688-2.688h18.688zM26.688 2.688c1.438 0 2.625 1.188 2.625 2.625v16c0 1.438-1.188 2.688-2.625 2.688h-18.688l-5.313 5.313v-24c0-1.438 1.188-2.625 2.625-2.625h21.375z"></path>
</svg> -->
<svg height="24" viewBox="0 0 511.096 511.096" width="24">
    <g id="Speech_Bubble_48_">
        <g>
            <path
                d="m74.414 480.548h-36.214l25.607-25.607c13.807-13.807 22.429-31.765 24.747-51.246-59.127-38.802-88.554-95.014-88.554-153.944 0-108.719 99.923-219.203 256.414-219.203 165.785 0 254.682 101.666 254.682 209.678 0 108.724-89.836 210.322-254.682 210.322-28.877 0-59.01-3.855-85.913-10.928-25.467 26.121-59.973 40.928-96.087 40.928z">
            </path>
        </g>
    </g>
</svg>
