<!-- Generated by IcoMoon.io -->
<!-- <svg version="1.1" xmlns="http://www.w3.org/2000/svg" width="32" height="32" viewBox="0 0 32 32">
<title>raised-hand</title>
<path d="M30.688 7.313v19.375c0 2.938-2.438 5.313-5.375 5.313h-9.688c-1.438 0-2.813-0.563-3.813-1.563l-10.5-10.688s1.688-1.625 1.75-1.625c0.313-0.25 0.688-0.375 1.063-0.375 0.313 0 0.563 0.063 0.813 0.188 0.063 0 5.75 3.25 5.75 3.25v-15.875c0-1.125 0.875-2 2-2s2 0.875 2 2v9.375h1.313v-12.688c0-1.125 0.875-2 2-2s2 0.875 2 2v12.688h1.313v-11.375c0-1.125 0.875-2 2-2s2 0.875 2 2v11.375h1.375v-7.375c0-1.125 0.875-2 2-2s2 0.875 2 2z"></path>
</svg> -->
<svg width="24" height="24" viewBox="0 0 312 306">
    <path fill-rule="evenodd" clip-rule="evenodd"
        d="M258 208.041C280.5 223.241 301.4 259.241 309.5 296.741L311.5 305.841H184.8H58.0003L58.5003 279.641C58.9003 258.641 58.6003 250.641 57.2003 239.841C54.5003 218.241 52.1003 210.841 40.9003 188.141C29.9003 165.841 27.1003 159.141 19.1003 134.841C12.0003 113.841 7.5003 95.1413 3.8003 72.4413C0.000298023 49.1413 -0.699699 39.2413 0.600301 29.3413C2.1003 18.8413 4.4003 12.5413 8.6003 7.64133C12.9485 2.55973 18.3395 0.00303628 23.9971 2.70277e-06C24.0038 -9.00914e-07 24.0106 -9.0093e-07 24.0173 2.70277e-06C29.153 0.00275618 34.5075 2.10936 39.5003 6.34133C47.1003 12.7413 50.8003 24.8413 55.2003 57.3413C60.7003 98.2413 66.6003 118.041 78.8003 136.041C82.9003 142.041 92.5003 152.241 96.7003 155.141C98.1003 156.041 101.2 158.141 103.6 159.941C119.4 171.041 162.2 184.641 199.7 190.341C235.8 195.841 243.4 198.141 258 208.041ZM243.5 62.5413C265 104.141 242.9 154.441 197.9 165.941C183.1 169.741 164.2 167.841 149.8 161.341C138.5 156.141 125.8 144.741 119.2 133.741C106.7 113.341 105.4 86.6413 115.8 65.3413C124.4 47.7413 139.2 34.7413 158.2 28.2413C165.5 25.6413 167.5 25.4413 180.2 25.4413C192.8 25.4413 195 25.6413 202.2 28.1413C213.7 31.9413 222.1 37.2413 231.2 46.3413C237.2 52.2413 240.4 56.4413 243.5 62.5413Z">
    </path>
</svg>
