<!-- Generated by IcoMoon.io -->
<!-- <svg version="1.1" xmlns="http://www.w3.org/2000/svg" width="32" height="32" viewBox="0 0 32 32">
<title>share-desktop</title>
<path d="M28 22.688v-16h-24v16h24zM28 4c1.438 0 2.688 1.25 2.688 2.688l-0.063 16c0 1.438-1.188 2.625-2.625 2.625h-6.688v2.688h-10.625v-2.688h-6.688c-1.438 0-2.688-1.188-2.688-2.625v-16c0-1.438 1.25-2.688 2.688-2.688h24z"></path>
</svg> -->
<svg viewBox="0 0 402.29 402.29" width="24" height="24">
    <polygon points="156.21 316.08 120.16 363.1 286.82 363.1 250.78 316.08"></polygon>
    <path
        d="m370.94 39.184h-339.59c-17.312 0-31.347 14.034-31.347 31.347v193.31c0 17.312 14.035 31.347 31.347 31.347h339.59c17.312 0 31.347-14.035 31.347-31.347v-193.31c0-17.313-14.035-31.347-31.347-31.347z">
    </path>
</svg>
